<?xml version="1.0" encoding="UTF-8" standalone="no"?>
<!-- Created with Inkscape (http://www.inkscape.org/) -->

<svg
   width="1024"
   height="576"
   viewBox="0 0 1024 576"
   version="1.1"
   id="svg1"
   inkscape:version="1.3.2 (1:1.3.2+202311252150+091e20ef0f)"
   sodipodi:docname="tuneplayer_logo.svg"
   xml:space="preserve"
   xmlns:inkscape="http://www.inkscape.org/namespaces/inkscape"
   xmlns:sodipodi="http://sodipodi.sourceforge.net/DTD/sodipodi-0.dtd"
   xmlns:xlink="http://www.w3.org/1999/xlink"
   xmlns="http://www.w3.org/2000/svg"
   xmlns:svg="http://www.w3.org/2000/svg"><sodipodi:namedview
     id="namedview1"
     pagecolor="#ffffff"
     bordercolor="#000000"
     borderopacity="0.25"
     inkscape:showpageshadow="2"
     inkscape:pageopacity="0.0"
     inkscape:pagecheckerboard="0"
     inkscape:deskcolor="#d1d1d1"
     inkscape:document-units="px"
     inkscape:zoom="0.6467785"
     inkscape:cx="593.71176"
     inkscape:cy="273.66401"
     inkscape:window-width="2186"
     inkscape:window-height="1440"
     inkscape:window-x="0"
     inkscape:window-y="0"
     inkscape:window-maximized="1"
     inkscape:current-layer="layer1"
     showguides="true"
     showgrid="true"><inkscape:grid
       id="grid16"
       units="px"
       originx="0"
       originy="441.16811"
       spacingx="38.2903"
       spacingy="38.292027"
       empcolor="#0099e5"
       empopacity="0.30196078"
       color="#0099e5"
       opacity="0.14901961"
       empspacing="5"
       dotted="false"
       gridanglex="30"
       gridanglez="30"
       visible="true"
       enabled="false" /><sodipodi:guide
       position="1024,0"
       orientation="1,0"
       id="guide27"
       inkscape:locked="false" /><sodipodi:guide
       position="218.6236,551.96149"
       orientation="0,-1"
       id="guide28"
       inkscape:locked="false" /><sodipodi:guide
       position="1024,0"
       orientation="0,-1"
       id="guide29"
       inkscape:locked="false" /><sodipodi:guide
       position="0,288"
       orientation="1,0"
       id="guide30"
       inkscape:locked="false" /><sodipodi:guide
       position="546.78871,792.57305"
       orientation="1,0"
       id="guide31"
       inkscape:locked="false" /><sodipodi:guide
       position="0,0"
       orientation="-0.49026124,0.87157554"
       id="guide50"
       inkscape:locked="false" /><sodipodi:guide
       position="0,576"
       orientation="-0.49026124,0.87157554"
       id="guide51"
       inkscape:label=""
       inkscape:locked="false"
       inkscape:color="rgb(0,134,229)" /><sodipodi:guide
       position="546.78871,307.56865"
       orientation="0.87157554,0.49026124"
       id="guide52"
       inkscape:label=""
       inkscape:locked="false"
       inkscape:color="rgb(0,134,229)" /><sodipodi:guide
       position="546.78871,307.56865"
       orientation="0,-1"
       id="guide53"
       inkscape:locked="false" /><sodipodi:guide
       position="1024,0"
       orientation="-0.49026124,0.87157554"
       id="guide54"
       inkscape:label=""
       inkscape:locked="false"
       inkscape:color="rgb(0,134,229)" /><sodipodi:guide
       position="0,0"
       orientation="0.87157554,0.49026124"
       id="guide55"
       inkscape:label=""
       inkscape:locked="false"
       inkscape:color="rgb(0,134,229)" /></sodipodi:namedview><defs
     id="defs1"><linearGradient
       id="linearGradient5"
       inkscape:collect="always"
       inkscape:label="tuneplayer"><stop
         style="stop-color:#6f00aa;stop-opacity:1;"
         offset="0"
         id="stop47" /><stop
         style="stop-color:#8a00d3;stop-opacity:1;"
         offset="0.3509829"
         id="stop5" /><stop
         style="stop-color:#0083f0;stop-opacity:1;"
         offset="1"
         id="stop6" /></linearGradient><clipPath
       clipPathUnits="userSpaceOnUse"
       id="clipPath259"><path
         d="M 0,0 H 2977.2 V 4208.4 H 0 Z"
         transform="translate(-212.59842,-1849.3984)"
         clip-rule="evenodd"
         id="path259" /></clipPath><clipPath
       clipPathUnits="userSpaceOnUse"
       id="clipPath261"><path
         d="M 0,0 H 2977.2 V 4208.4 H 0 Z"
         transform="translate(-212.59842,-1849.3984)"
         clip-rule="evenodd"
         id="path261" /></clipPath><clipPath
       clipPathUnits="userSpaceOnUse"
       id="clipPath263"><path
         d="M 0,0 H 2977.2 V 4208.4 H 0 Z"
         transform="translate(-212.59842,-1849.3984)"
         clip-rule="evenodd"
         id="path263" /></clipPath><clipPath
       clipPathUnits="userSpaceOnUse"
       id="clipPath265"><path
         d="M 0,0 H 2977.2 V 4208.4 H 0 Z"
         transform="translate(-212.59842,-1849.3984)"
         clip-rule="evenodd"
         id="path265" /></clipPath><clipPath
       clipPathUnits="userSpaceOnUse"
       id="clipPath267"><path
         d="M 0,0 H 2977.2 V 4208.4 H 0 Z"
         transform="translate(-212.59842,-1849.3984)"
         clip-rule="evenodd"
         id="path267" /></clipPath><clipPath
       clipPathUnits="userSpaceOnUse"
       id="clipPath411"><path
         d="M 0,0 H 2977.2 V 4208.4 H 0 Z"
         transform="matrix(1.0080645,0,0,1.0080645,-233.06293,-1939.3129)"
         clip-rule="evenodd"
         id="path411" /></clipPath><linearGradient
       inkscape:collect="always"
       xlink:href="#linearGradient5"
       id="linearGradient6"
       x1="0"
       y1="0"
       x2="1024"
       y2="576"
       gradientUnits="userSpaceOnUse"
       spreadMethod="pad" /><linearGradient
       inkscape:collect="always"
       xlink:href="#linearGradient5"
       id="linearGradient55"
       gradientUnits="userSpaceOnUse"
       x1="300.66409"
       y1="-169.12355"
       x2="792.91333"
       y2="705.98627"
       spreadMethod="pad" /></defs><g
     inkscape:label="Notes"
     inkscape:groupmode="layer"
     id="layer1"><rect
       style="display:inline;fill:url(#linearGradient55);stroke:none;stroke-width:1.824;stroke-opacity:0.666667"
       id="rect5"
       width="1024"
       height="576"
       x="0"
       y="0"
       rx="35"
       ry="35"
       inkscape:label="background" /><g
       id="g31"
       inkscape:label="stave"
       style="display:inline"><path
         id="path258"
         d="M 0,0 H 331.59906"
         style="fill:none;stroke:#ffffff;stroke-width:2.728;stroke-linecap:butt;stroke-linejoin:bevel;stroke-miterlimit:10;stroke-dasharray:none;stroke-opacity:1"
         transform="matrix(3.0880667,0,0,3.0880667,0,134.83189)"
         clip-path="url(#clipPath259)" /><path
         id="path260"
         d="M 0,24.8 H 331.59906"
         style="fill:none;stroke:#ffffff;stroke-width:2.728;stroke-linecap:butt;stroke-linejoin:bevel;stroke-miterlimit:10;stroke-dasharray:none;stroke-opacity:1"
         transform="matrix(3.0880667,0,0,3.0880667,0,134.83189)"
         clip-path="url(#clipPath261)" /><path
         id="path262"
         d="M 0,49.6 H 331.59906"
         style="fill:none;stroke:#ffffff;stroke-width:2.728;stroke-linecap:butt;stroke-linejoin:bevel;stroke-miterlimit:10;stroke-dasharray:none;stroke-opacity:1"
         transform="matrix(3.0880667,0,0,3.0880667,0,134.83189)"
         clip-path="url(#clipPath263)" /><path
         id="path264"
         d="M 0,74.4 H 331.59906"
         style="fill:none;stroke:#ffffff;stroke-width:2.728;stroke-linecap:butt;stroke-linejoin:bevel;stroke-miterlimit:10;stroke-dasharray:none;stroke-opacity:1"
         transform="matrix(3.0880667,0,0,3.0880667,0,134.83189)"
         clip-path="url(#clipPath265)" /><path
         id="path266"
         d="M 0,99.2 H 331.59906"
         style="fill:none;stroke:#ffffff;stroke-width:2.728;stroke-linecap:butt;stroke-linejoin:bevel;stroke-miterlimit:10;stroke-dasharray:none;stroke-opacity:1"
         transform="matrix(3.0880667,0,0,3.0880667,0,134.83189)"
         clip-path="url(#clipPath267)" /></g><path
       id="path410"
       d="m 12.283633,51.324087 c -0.0443,1.683389 0.265798,3.425844 0.945061,5.197832 0.664495,1.771989 1.727688,3.425845 3.189579,4.961568 1.447124,1.535723 3.366778,2.746582 5.729429,3.662109 2.362651,0.945061 5.256899,1.432358 8.682743,1.476657 4.636703,-0.0443 8.771343,-1.181325 12.403919,-3.425844 1.299458,-0.915527 2.362651,-1.993487 3.189579,-3.248645 0.856461,-1.269925 1.668623,-3.012381 2.421718,-5.256899 0.782628,-2.214986 1.181325,-4.946801 1.181325,-8.210213 0,-1.934421 -0.162432,-4.060807 -0.47253,-6.379158 -0.280565,-2.288819 -0.679262,-4.843435 -1.181326,-7.678617 -0.354397,-2.008253 -0.856461,-4.991101 -1.476657,-8.919008 2.436484,-0.797395 4.681003,-1.978721 6.733556,-3.543977 2.082087,-1.580023 3.868842,-3.455377 5.375032,-5.611297 1.535723,-2.126386 2.731815,-4.4299707 3.603043,-6.9107545 0.900761,-2.4512506 1.358524,-5.2568989 1.358524,-8.446478 0,-3.1895792 -0.649729,-6.320092 -1.949187,-9.3915385 -1.269925,-3.10098 -3.01238,-5.788496 -5.256899,-8.033014 -2.244518,-2.244519 -4.932034,-3.972208 -8.033014,-5.197833 -3.071447,-1.210859 -6.408691,-1.845821 -9.982201,-1.890121 -1.107493,-5.980461 -2.052554,-11.813256 -2.835182,-17.483619 2.554617,-2.717049 4.917268,-5.55223 7.087954,-8.505544 2.200219,-2.982847 4.09034,-6.11336 5.670363,-9.391539 1.565256,-3.263412 2.790881,-6.674489 3.662109,-10.218466 0.856461,-3.57351 1.314225,-7.383285 1.358525,-11.399792 -0.0443,-2.244519 -0.221499,-4.370905 -0.531597,-6.379159 -0.324864,-2.037786 -0.694029,-3.913141 -1.122259,-5.611296 -0.442997,-1.727689 -0.915528,-3.263412 -1.417591,-4.60717 -0.47253,-1.373291 -0.915527,-2.539851 -1.299458,-3.484911 -1.269925,-2.55462 -2.53985,-4.60717 -3.839308,-6.14289 -1.299459,-1.56526 -2.406951,-2.37742 -3.307712,-2.42172 -0.442997,-0.0295 -1.151793,0.23626 -2.126386,0.82693 -0.945061,0.56113 -1.816288,1.16656 -2.598916,1.83105 -0.797395,0.67926 -1.580023,1.47666 -2.362652,2.42172 -1.624322,1.93442 -2.953314,4.11987 -4.016507,6.556357 -1.063193,2.451251 -1.919654,4.991101 -2.53985,7.61955 -0.634962,2.598917 -1.063193,5.1683 -1.299458,7.678617 -0.236265,2.525083 -0.354398,4.828668 -0.354398,6.910754 0,1.388058 0.01477,2.761349 0.05907,4.13464 0.07383,1.388058 0.191965,2.894248 0.354397,4.548104 0.147666,1.624322 0.369165,3.48491 0.649729,5.611296 0.310098,2.096853 0.708796,4.489038 1.181326,7.206086 -0.0886,0.118133 -0.413464,0.457764 -1.004127,1.004127 -0.590663,0.56113 -1.284691,1.225625 -2.06732,2.008254 -0.797394,0.797394 -1.594789,1.580023 -2.421717,2.362651 -0.826928,0.797395 -1.476657,1.388057 -1.949187,1.771988 -2.333118,2.126386 -4.754836,4.518571 -7.265153,7.14702 -2.480784,2.598917 -4.8286682,5.552231 -7.0288871,8.859942 -2.2149855,3.278179 -3.9869739,6.955055 -5.3159653,11.045395 -1.34375783,4.060806 -2.03778662,8.56461 -2.06731976,13.5261778 0,4.7253025 0.90076077,9.09620719 2.71704886,13.1127142 1.8458213,4.0460402 4.3856713,7.590017 7.6195503,10.63193 3.263412,3.027147 6.984588,5.389799 11.163527,7.087954 4.164173,1.683389 8.638443,2.53985 13.408045,2.53985 2.909015,-0.0443 5.552231,-0.265798 7.914882,-0.649729 0.900761,4.754836 1.624323,8.933775 2.185452,12.522051 0.546363,3.61781 0.841695,6.733556 0.885995,9.332473 -0.0443,5.271665 -1.388058,9.229106 -4.016507,11.872322 -2.643217,2.672749 -6.467758,4.016507 -11.458859,4.016507 -1.269925,0 -2.347884,-0.0886 -3.248645,-0.236265 -0.915528,-0.118133 -1.417591,-0.221499 -1.535724,-0.295331 -0.118132,-0.0443 -0.206732,-0.162433 -0.236265,-0.354398 0,-0.162432 0.147666,-0.236265 0.472531,-0.236265 1.181325,-0.206732 2.318351,-0.575896 3.425844,-1.122259 1.092726,-0.56113 2.096853,-1.299459 3.01238,-2.244519 0.900761,-0.945061 1.609556,-2.096853 2.126386,-3.425844 0.546363,-1.299459 0.841695,-2.761349 0.885994,-4.370905 -0.0443,-1.343758 -0.324864,-2.657983 -0.826928,-3.957441 C 33.975728,44.826796 33.222632,43.64547 32.248039,42.582277 31.302978,41.519084 30.09212,40.647857 28.644996,39.983361 27.183105,39.348398 25.529249,39.0383 23.683428,39.0383 c -1.816288,0 -3.425844,0.310098 -4.843435,0.945061 -1.388057,0.664496 -2.569383,1.565256 -3.543977,2.717049 -0.98936,1.137026 -1.742455,2.436484 -2.244518,3.898374 -0.51683,1.491424 -0.767862,3.071447 -0.767862,4.725303 z M 33.193096,-82.165707 c 0.191966,-1.018893 0.60543,-2.318351 1.240392,-3.898374 0.620196,-1.609556 1.417591,-3.219112 2.362651,-4.843435 0.974594,-1.609556 2.06732,-2.953314 3.248646,-4.016507 1.210859,-1.092726 2.49555,-1.683389 3.839308,-1.771989 0.310098,0.0443 0.708795,0.354398 1.181326,0.945061 0.47253,0.590663 0.90076,1.417591 1.299458,2.480784 0.383931,1.03366 0.708795,2.244518 0.94506,3.662109 0.265799,1.417591 0.413464,3.219112 0.413464,5.375032 0,2.170685 -0.442997,4.415204 -1.299458,6.733556 -0.871228,2.288818 -2.008253,4.459504 -3.425844,6.49729 -1.417591,2.008254 -2.982847,3.957441 -4.666236,5.847562 -1.698156,1.860588 -3.411078,3.603043 -5.138767,5.256899 -0.324864,-1.963954 -0.590662,-3.957441 -0.826928,-5.965694 -0.206732,-2.008254 -0.295331,-4.04604 -0.295331,-6.142893 -0.0443,-3.66211 0.324865,-7.043654 1.122259,-10.159401 z m 8.800876,102.775328 c -2.008253,0.383931 -3.942674,0.590663 -5.788495,0.590663 -3.632577,0 -7.028888,-0.590663 -10.218467,-1.771989 -3.189579,-1.181325 -6.009994,-2.879481 -8.446478,-5.0797 C 15.089281,12.17791 13.184394,9.5346935 11.811103,6.4337138 10.423045,3.3622672 9.7437831,-0.07834362 9.7437831,-3.9028853 c 0,-3.0271468 0.4725299,-5.9804608 1.4175909,-8.8599417 0.94506,-2.864715 2.244518,-5.581764 3.898374,-8.151147 1.653856,-2.598916 3.499677,-5.0354 5.552231,-7.324219 2.082086,-2.318351 4.252772,-4.444737 6.49729,-6.379158 1.683389,-1.417591 3.278179,-2.894248 4.784369,-4.429971 0.856461,5.434098 1.624323,10.188933 2.303585,14.234974 -2.333118,0.708795 -4.429971,1.816288 -6.320092,3.307711 -1.890121,1.461891 -3.52921,3.174813 -4.902501,5.138767 -1.343758,1.97872 -2.362651,4.105106 -3.071447,6.3791579 -0.679262,2.2445186 -1.004126,4.5481035 -1.004126,6.9107548 0,1.8162881 0.310097,3.6768759 0.94506,5.6112966 0.620196,1.9196541 1.535723,3.6916425 2.717049,5.3159652 1.210859,1.6538558 2.657983,2.9828475 4.311838,4.0165075 1.683389,1.018893 3.543977,1.550489 5.552231,1.594789 0.383931,0 0.738328,-0.103366 1.063193,-0.295331 0.354397,-0.206732 0.531596,-0.51683 0.531596,-0.945061 0,-0.398697 -0.221498,-0.767861 -0.649729,-1.122259 C 32.971598,10.745552 32.484301,10.361621 31.893638,9.9776906 29.885385,8.8701978 28.349661,7.5559731 27.286468,6.0202498 26.252808,4.4845265 25.750745,2.5058061 25.750745,0.11362179 c 0,-1.49142359 0.251032,-2.90901429 0.767862,-4.25277219 0.502063,-1.373291 1.240392,-2.5989163 2.185452,-3.6621094 0.945061,-1.0927262 2.037787,-2.0230201 3.307712,-2.7761152 1.299458,-0.738328 2.687515,-1.314225 4.193706,-1.712922 z M 56.169879,2.1218753 c 0,1.8015216 -0.206732,3.57351 -0.590662,5.3159652 -0.354398,1.7719884 -0.945061,3.4258445 -1.771989,4.9615675 -0.826928,1.565257 -1.875354,2.953314 -3.130513,4.13464 -1.225625,1.210858 -2.717049,2.155919 -4.489037,2.835181 C 45.626548,16.371615 45.065419,13.241103 44.474756,9.9776906 43.884093,6.699512 43.322963,3.539466 42.8209,0.46801947 42.34837,-2.6034271 41.905373,-5.2909429 41.521442,-7.6240609 41.122744,-9.9424124 40.84218,-11.699634 40.694514,-12.88096 c 2.244519,0.0443 4.311838,0.442997 6.201959,1.181326 1.890121,0.708795 3.514444,1.742455 4.902502,3.0714463 1.373291,1.3437579 2.436484,2.9237809 3.189579,4.7253024 0.782628,1.8162881 1.181325,3.82454168 1.181325,6.0247606 z m 0,0"
       style="display:none;fill:#ffffff;fill-opacity:1;fill-rule:nonzero;stroke:none"
       aria-label="î"
       transform="matrix(3.0633621,0,0,3.0633621,57.436518,364.57515)"
       clip-path="url(#clipPath411)"
       inkscape:label="trebleclef" /><g
       id="g47"
       inkscape:label="verticals"
       style="display:inline"><path
         style="fill:#4d4d4d;fill-opacity:1;stroke:#ffffff;stroke-width:8.424;stroke-dasharray:none;stroke-opacity:1"
         d="M 519.48362,-1.4007501e-6 V 575.99993"
         id="path22" /><path
         style="fill:#4d4d4d;fill-opacity:1;stroke:#ffffff;stroke-width:8.424;stroke-dasharray:none;stroke-opacity:1"
         d="M 596.06423,-1.4007501e-6 V 575.99993"
         id="path23" /><path
         style="fill:#4d4d4d;fill-opacity:1;stroke:#ffffff;stroke-width:8.424;stroke-dasharray:none;stroke-opacity:1"
         d="M 672.64483,-1.4007501e-6 V 575.99993"
         id="path24" /><path
         style="fill:#4d4d4d;fill-opacity:1;stroke:#ffffff;stroke-width:8.424;stroke-dasharray:none;stroke-opacity:1"
         d="M 749.22543,-1.4007501e-6 V 575.99993"
         id="path25" /><path
         style="fill:#4d4d4d;fill-opacity:1;stroke:#ffffff;stroke-width:8.424;stroke-dasharray:none;stroke-opacity:1"
         d="M 825.80603,-1.4007501e-6 V 575.99993"
         id="path26" /></g><path
       style="display:inline;fill:#ffffff;fill-opacity:1;stroke:#ffffff;stroke-width:8.424;stroke-dasharray:none;stroke-opacity:1"
       d="m 516.19342,96.539065 c -19.38998,0 -35.00001,15.610015 -35.00001,34.999995 v 312.92188 c 0,19.38998 15.61003,34.99999 35.00001,34.99999 h 312.90234 c 19.38998,0 34.99999,-15.61001 34.99999,-34.99999 V 131.53906 c 0,-19.38998 -15.61001,-34.999995 -34.99999,-34.999995 z"
       id="rect26"
       inkscape:label="mcusquare" /><path
       id="rect46"
       style="display:inline;fill:url(#linearGradient6);fill-opacity:1;stroke:none;stroke-width:1.824;stroke-opacity:0.666667"
       inkscape:label="background"
       d="M 814.125 134.31055 L 629.25195 153.45703 L 629.25195 176.3125 L 629.25195 191.95312 L 629.25195 371.38281 C 628.52099 370.66548 627.74867 369.98664 626.92969 369.3457 C 623.76324 366.94826 620.09942 365.1833 615.89258 364.09766 C 611.6405 362.92155 606.52796 362.28906 600.51172 362.28906 C 594.45024 362.28906 587.5747 363.73582 579.88477 366.63086 C 572.2853 369.43542 565.2746 373.32627 558.89648 378.39258 C 552.47312 383.36842 547.31661 389.02227 543.33594 395.40039 C 539.44573 401.68804 537.54492 408.29132 537.54492 415.30273 C 537.40922 418.65012 537.95249 421.99894 539.17383 425.25586 C 540.48564 428.60324 542.47567 431.63388 545.14453 434.30273 C 547.76816 437.06206 551.29613 439.23319 555.63867 440.81641 C 560.0717 442.35439 565.45453 443.16797 571.74219 443.16797 C 579.70353 443.16797 587.53045 441.7212 595.26562 438.82617 C 602.95556 435.93113 609.96625 431.95108 616.25391 426.88477 C 622.49632 421.90893 627.51699 416.25312 631.27148 409.875 C 635.11645 403.58735 637.10844 397.02805 637.24414 390.15234 C 637.20414 388.87232 637.08304 387.63733 636.90039 386.43359 L 636.91016 386.43359 L 636.91016 191.16016 L 806.46875 173.60156 L 806.46875 333.05664 C 805.74175 332.34428 804.97406 331.66818 804.16016 331.03125 C 800.99366 328.63379 797.32984 326.86884 793.12305 325.7832 C 788.87095 324.60709 783.75848 323.97461 777.74219 323.97461 C 771.68069 323.97461 764.80513 325.42138 757.11523 328.31641 C 749.51574 331.12097 742.50505 335.01182 736.12695 340.07812 C 729.70356 345.05397 724.5471 350.70781 720.56641 357.08594 C 716.67621 363.37359 714.77539 369.97882 714.77539 376.99023 C 714.63969 380.33762 715.183 383.6845 716.4043 386.94141 C 717.7161 390.28879 719.7062 393.31941 722.375 395.98828 C 724.9987 398.74761 728.52654 400.91873 732.86914 402.50195 C 737.30214 404.03994 742.68496 404.85352 748.97266 404.85352 C 756.93395 404.85352 764.761 403.40675 772.49609 400.51172 C 780.18609 397.61668 787.19678 393.63662 793.48438 388.57031 C 799.72677 383.59447 804.74746 377.93867 808.50195 371.56055 C 812.34695 365.27289 814.33891 358.71555 814.47461 351.83984 C 814.43461 350.54596 814.3112 349.29605 814.125 348.08008 L 814.125 172.80859 L 814.125 134.31055 z " /><path
       id="rect47"
       style="display:inline;fill:url(#linearGradient6);fill-opacity:1;stroke:none;stroke-width:1.824;stroke-opacity:0.666667"
       inkscape:label="background"
       d="m 543.12695,134.83203 a 23.643453,23.643453 0 0 0 -23.64257,23.64258 23.643453,23.643453 0 0 0 23.64257,23.64453 23.643453,23.643453 0 0 0 23.64258,-23.64453 23.643453,23.643453 0 0 0 -23.64258,-23.64258 z" /></g></svg>
